<svg height="513" viewBox="0 0 513 513" width="513" xmlns="http://www.w3.org/2000/svg"><g fill="none" fill-rule="evenodd" transform="translate(.5 .3713)"><path d="m512 199.403706v70.639995c-.427 35.890389-5.927 71.034314-16.5 105.432829-24.019 61.521109-66.186 102.112748-126.5 121.774917-53.988 15.082166-108.655 18.597296-164 10.543282-63.164-10.174268-114.997-40.924806-155.5-92.253725-28.7799-40.313296-45.27988-85.649412-49.5-136.008348 0-16.869253 0-33.738506 0-50.607758 2.64671-43.127299 14.1467-83.542865 34.5-121.247753 35.3527-55.4605144 84.519-89.0232631 147.5-100.6883512 15.542-2.99218368 31.209-4.74943263 47-5.27164143 40.828-3.2729513 81.494-1.86710996 122 4.21731314 85.997 16.51584169 138.163 69.75942019 156.5 159.73073549 1.68 11.376202 3.18 22.622722 4.5 33.738505z" fill="#000"/><path d="m262 32.8198368c35.563-2.0229397 70.563 1.6672093 105 11.070447 58.499 18.450745 94.666 59.0423842 108.5 121.7749172 3.388 16.330491 5.388 32.848652 6 49.553429.391 24.274855-.276 48.524405-2 72.748652-2.532 98.040933-48.699 159.015901-138.5 182.925957-49.648 11.123164-99.314 11.474255-149 1.054329-69.992-19.033789-119.1586-63.490595-147.5-133.372528-18.6405-58.599567-18.6405-117.289805 0-176.072824 20.8706-59.255358 60.037-98.0899593 117.5-116.5032756 32.896-9.1935318 66.23-13.5864961 100-13.1791036z" fill="#fff6e5"/><path d="m255 104.51416c29.087-2.41652 57.421 1.273629 85 11.070447 37.549 16.735353 59.716 46.432618 66.5 89.09074 3.106 28.443669 3.106 56.910533 0 85.400591-6.479 50.053181-31.979 84.318851-76.5 102.797008-31.412 9.893817-63.412 12.70571-96 8.434627-64.226-10.083596-104.393-48.215487-120.5-114.394619-6.252-36.17295-2.919-71.316874 10-105.432829 19.572-40.65279 50.739-65.077359 93.5-73.275816 12.762-1.870378 25.428-3.100779 38-3.690149zm3 32.684177c-13.602.732758-27.268 2.314251-41 4.744477-10.351 2.296327-20.017 6.337568-29 12.124776 36.09 10.416763 70.757 24.650195 104 42.700295 31.894 17.111748 60.061 39.428715 84.5 66.949846 2.094-18.317899 1.761-36.592571-1-54.825071-6.148-33.5424-24.648-55.507221-55.5-65.895517-20.384-5.069211-41.051-7.001795-62-5.798806zm-99 44.281788c-6.271 10.7668-10.604 22.364412-13 34.792833 28.135 7.62912 54.135 20.104987 78 37.428655 38.925 27.864842 64.925 65.645642 78 113.34029 33.027-6.546324 56.027-26.051397 69-58.51522-10.885-16.048985-23.552-30.458489-38-43.227459-51.659-42.020254-109.659-69.959954-174-83.819099zm-17 67.47701c-1.643 37.85144 11.023 69.30627 38 94.362382 26.484 20.13767 56.151 29.099461 89 26.885371-2.813-12.267109-7.313-23.864721-13.5-34.792833-27.813-43.172635-65.646-71.991644-113.5-86.45492z" fill="#000"/><g fill="#fba87a"><path d="m258 137.198337c20.949-1.202989 41.616.729595 62 5.798806 30.852 10.388296 49.352 32.353117 55.5 65.895517 2.761 18.2325 3.094 36.507172 1 54.825071-24.439-27.521131-52.606-49.838098-84.5-66.949846-33.243-18.0501-67.91-32.283532-104-42.700295 8.983-5.787208 18.649-9.828449 29-12.124776 13.732-2.430226 27.398-4.011719 41-4.744477z"/><path d="m159 181.480125c64.341 13.859145 122.341 41.798845 174 83.819099 14.448 12.76897 27.115 27.178474 38 43.227459-12.973 32.463823-35.973 51.968896-69 58.51522-13.075-47.694648-39.075-85.475448-78-113.34029-23.865-17.323668-49.865-29.799535-78-37.428655 2.396-12.428421 6.729-24.026033 13-34.792833z"/><path d="m142 248.957135c47.854 14.463276 85.687 43.282285 113.5 86.45492 6.187 10.928112 10.687 22.525724 13.5 34.792833-32.849 2.21409-62.516-6.747701-89-26.885371-26.977-25.056112-39.643-56.510942-38-94.362382z"/></g></g></svg>